<svg version="1.1" xmlns="http://www.w3.org/2000/svg" xmlns:xlink="http://www.w3.org/1999/xlink" width="475.81982421875" height="219"><defs/><g><text fill="#eeeeee" stroke="none" font-family="Arial" font-size="24px" font-style="normal" font-weight="normal" text-decoration="none" x="0" y="0">UNREGISTERED</text><text fill="#eeeeee" stroke="none" font-family="Arial" font-size="24px" font-style="normal" font-weight="normal" text-decoration="none" x="0" y="30">UNREGISTERED</text><text fill="#eeeeee" stroke="none" font-family="Arial" font-size="24px" font-style="normal" font-weight="normal" text-decoration="none" x="0" y="60">UNREGISTERED</text><text fill="#eeeeee" stroke="none" font-family="Arial" font-size="24px" font-style="normal" font-weight="normal" text-decoration="none" x="0" y="90">UNREGISTERED</text><text fill="#eeeeee" stroke="none" font-family="Arial" font-size="24px" font-style="normal" font-weight="normal" text-decoration="none" x="0" y="120">UNREGISTERED</text><text fill="#eeeeee" stroke="none" font-family="Arial" font-size="24px" font-style="normal" font-weight="normal" text-decoration="none" x="0" y="150">UNREGISTERED</text><text fill="#eeeeee" stroke="none" font-family="Arial" font-size="24px" font-style="normal" font-weight="normal" text-decoration="none" x="0" y="180">UNREGISTERED</text><text fill="#eeeeee" stroke="none" font-family="Arial" font-size="24px" font-style="normal" font-weight="normal" text-decoration="none" x="0" y="210">UNREGISTERED</text><text fill="#eeeeee" stroke="none" font-family="Arial" font-size="24px" font-style="normal" font-weight="normal" text-decoration="none" x="200" y="0">UNREGISTERED</text><text fill="#eeeeee" stroke="none" font-family="Arial" font-size="24px" font-style="normal" font-weight="normal" text-decoration="none" x="200" y="30">UNREGISTERED</text><text fill="#eeeeee" stroke="none" font-family="Arial" font-size="24px" font-style="normal" font-weight="normal" text-decoration="none" x="200" y="60">UNREGISTERED</text><text fill="#eeeeee" stroke="none" font-family="Arial" font-size="24px" font-style="normal" font-weight="normal" text-decoration="none" x="200" y="90">UNREGISTERED</text><text fill="#eeeeee" stroke="none" font-family="Arial" font-size="24px" font-style="normal" font-weight="normal" text-decoration="none" x="200" y="120">UNREGISTERED</text><text fill="#eeeeee" stroke="none" font-family="Arial" font-size="24px" font-style="normal" font-weight="normal" text-decoration="none" x="200" y="150">UNREGISTERED</text><text fill="#eeeeee" stroke="none" font-family="Arial" font-size="24px" font-style="normal" font-weight="normal" text-decoration="none" x="200" y="180">UNREGISTERED</text><text fill="#eeeeee" stroke="none" font-family="Arial" font-size="24px" font-style="normal" font-weight="normal" text-decoration="none" x="200" y="210">UNREGISTERED</text><text fill="#eeeeee" stroke="none" font-family="Arial" font-size="24px" font-style="normal" font-weight="normal" text-decoration="none" x="400" y="0">UNREGISTERED</text><text fill="#eeeeee" stroke="none" font-family="Arial" font-size="24px" font-style="normal" font-weight="normal" text-decoration="none" x="400" y="30">UNREGISTERED</text><text fill="#eeeeee" stroke="none" font-family="Arial" font-size="24px" font-style="normal" font-weight="normal" text-decoration="none" x="400" y="60">UNREGISTERED</text><text fill="#eeeeee" stroke="none" font-family="Arial" font-size="24px" font-style="normal" font-weight="normal" text-decoration="none" x="400" y="90">UNREGISTERED</text><text fill="#eeeeee" stroke="none" font-family="Arial" font-size="24px" font-style="normal" font-weight="normal" text-decoration="none" x="400" y="120">UNREGISTERED</text><text fill="#eeeeee" stroke="none" font-family="Arial" font-size="24px" font-style="normal" font-weight="normal" text-decoration="none" x="400" y="150">UNREGISTERED</text><text fill="#eeeeee" stroke="none" font-family="Arial" font-size="24px" font-style="normal" font-weight="normal" text-decoration="none" x="400" y="180">UNREGISTERED</text><text fill="#eeeeee" stroke="none" font-family="Arial" font-size="24px" font-style="normal" font-weight="normal" text-decoration="none" x="400" y="210">UNREGISTERED</text><g transform="translate(-46,-206) scale(1,1)"><rect fill="#C0C0C0" stroke="none" x="63" y="223" width="118.4716796875" height="72" opacity="0.2"/></g><g transform="translate(-46,-206) scale(1,1)"><rect fill="#ffffff" stroke="none" x="56" y="216" width="118.4716796875" height="72"/></g><g transform="translate(-46,-206) scale(1,1)"><path fill="none" stroke="#000000" d="M 56 216 L 174.4716796875 216 L 174.4716796875 288 L 56 288 L 56 216 Z Z" stroke-miterlimit="10"/></g><g transform="translate(-46,-206) scale(1,1)"><path fill="none" stroke="#000000" d="M 56 241 L 174.4716796875 241" stroke-miterlimit="10"/></g><g transform="translate(-46,-206) scale(1,1)"><path fill="none" stroke="#000000" d="M 56 264 L 174.4716796875 264" stroke-miterlimit="10"/></g><g transform="translate(-46,-206) scale(1,1)"><g><path fill="none" stroke="none"/><text fill="#000000" stroke="none" font-family="Arial" font-size="13px" font-style="normal" font-weight="bold" text-decoration="none" x="68.628173828125" y="235.5">StrategyContext</text></g></g><g transform="translate(-46,-206) scale(1,1)"><g><path fill="none" stroke="none"/><text fill="#000000" stroke="none" font-family="Arial" font-size="13px" font-style="normal" font-weight="normal" text-decoration="none" x="61" y="258.5">+strategy: Strategy</text></g></g><g transform="translate(-46,-206) scale(1,1)"><g><path fill="none" stroke="none"/><text fill="#000000" stroke="none" font-family="Arial" font-size="13px" font-style="normal" font-weight="normal" text-decoration="none" x="61" y="281.5">+execute()</text></g></g><g transform="translate(-46,-206) scale(1,1)"><rect fill="#C0C0C0" stroke="none" x="351" y="223" width="120" height="72" opacity="0.2"/></g><g transform="translate(-46,-206) scale(1,1)"><rect fill="#ffffff" stroke="none" x="344" y="216" width="120" height="72"/></g><g transform="translate(-46,-206) scale(1,1)"><path fill="none" stroke="#000000" d="M 344 216 L 464 216 L 464 288 L 344 288 L 344 216 Z Z" stroke-miterlimit="10"/></g><g transform="translate(-46,-206) scale(1,1)"><path fill="none" stroke="#000000" d="M 344 241 L 464 241" stroke-miterlimit="10"/></g><g transform="translate(-46,-206) scale(1,1)"><path fill="none" stroke="#000000" d="M 344 251 L 464 251" stroke-miterlimit="10"/></g><g transform="translate(-46,-206) scale(1,1)"><g><path fill="none" stroke="none"/><text fill="#000000" stroke="none" font-family="Arial" font-size="13px" font-style="normal" font-weight="bold" text-decoration="none" x="379.793212890625" y="235.5">Strategy</text></g></g><g transform="translate(-46,-206) scale(1,1)"><g><path fill="none" stroke="none"/><text fill="#000000" stroke="none" font-family="Arial" font-size="13px" font-style="normal" font-weight="normal" text-decoration="none" x="349" y="268.5">+strategy()</text></g></g><g transform="translate(-46,-206) scale(1,1)"><rect fill="#C0C0C0" stroke="none" x="279" y="359" width="89.57080078125" height="57" opacity="0.2"/></g><g transform="translate(-46,-206) scale(1,1)"><rect fill="#ffffff" stroke="none" x="272" y="352" width="89.57080078125" height="57"/></g><g transform="translate(-46,-206) scale(1,1)"><path fill="none" stroke="#000000" d="M 272 352 L 361.57080078125 352 L 361.57080078125 409 L 272 409 L 272 352 Z Z" stroke-miterlimit="10"/></g><g transform="translate(-46,-206) scale(1,1)"><path fill="none" stroke="#000000" d="M 272 377 L 361.57080078125 377" stroke-miterlimit="10"/></g><g transform="translate(-46,-206) scale(1,1)"><path fill="none" stroke="#000000" d="M 272 387 L 361.57080078125 387" stroke-miterlimit="10"/></g><g transform="translate(-46,-206) scale(1,1)"><g><path fill="none" stroke="none"/><text fill="#000000" stroke="none" font-family="Arial" font-size="13px" font-style="normal" font-weight="bold" text-decoration="none" x="288.963623046875" y="371.5">Strategy1</text></g></g><g transform="translate(-46,-206) scale(1,1)"><g><path fill="none" stroke="none"/><text fill="#000000" stroke="none" font-family="Arial" font-size="13px" font-style="normal" font-weight="normal" text-decoration="none" x="277" y="404.5">+strategy()</text></g></g><g transform="translate(-46,-206) scale(1,1)"><path fill="none" stroke="#000000" d="M 336 351 L 379 289" stroke-miterlimit="10"/></g><g transform="translate(-46,-206) scale(1,1)"><path fill="#FFFFFF" stroke="none" d="M 374.3346502535091 310.4996398049576 L 379 289 L 360.4985584584956 300.9036406568031"/></g><g transform="translate(-46,-206) scale(1,1)"><path fill="none" stroke="#000000" d="M 374.3346502535091 310.4996398049576 L 379 289 L 360.4985584584956 300.9036406568031 L 374.3346502535091 310.4996398049576" stroke-miterlimit="10"/></g><g transform="translate(-46,-206) scale(1,1)"><rect fill="#C0C0C0" stroke="none" x="429.2490234375" y="365" width="89.57080078125" height="57" opacity="0.2"/></g><g transform="translate(-46,-206) scale(1,1)"><rect fill="#ffffff" stroke="none" x="422.2490234375" y="358" width="89.57080078125" height="57"/></g><g transform="translate(-46,-206) scale(1,1)"><path fill="none" stroke="#000000" d="M 422.2490234375 358 L 511.81982421875 358 L 511.81982421875 415 L 422.2490234375 415 L 422.2490234375 358 Z Z" stroke-miterlimit="10"/></g><g transform="translate(-46,-206) scale(1,1)"><path fill="none" stroke="#000000" d="M 422.2490234375 383 L 511.81982421875 383" stroke-miterlimit="10"/></g><g transform="translate(-46,-206) scale(1,1)"><path fill="none" stroke="#000000" d="M 422.2490234375 393 L 511.81982421875 393" stroke-miterlimit="10"/></g><g transform="translate(-46,-206) scale(1,1)"><g><path fill="none" stroke="none"/><text fill="#000000" stroke="none" font-family="Arial" font-size="13px" font-style="normal" font-weight="bold" text-decoration="none" x="439.212646484375" y="377.5">Strategy2</text></g></g><g transform="translate(-46,-206) scale(1,1)"><g><path fill="none" stroke="none"/><text fill="#000000" stroke="none" font-family="Arial" font-size="13px" font-style="normal" font-weight="normal" text-decoration="none" x="427.2490234375" y="410.5">+strategy()</text></g></g><g transform="translate(-46,-206) scale(1,1)"><path fill="none" stroke="#000000" d="M 453 357 L 421 289" stroke-miterlimit="10"/></g><g transform="translate(-46,-206) scale(1,1)"><path fill="#FFFFFF" stroke="none" d="M 437.27217445690195 303.8059561813531 L 421 289 L 422.0367728853402 310.9755569209116"/></g><g transform="translate(-46,-206) scale(1,1)"><path fill="none" stroke="#000000" d="M 437.27217445690195 303.8059561813531 L 421 289 L 422.0367728853402 310.9755569209116 L 437.27217445690195 303.8059561813531" stroke-miterlimit="10"/></g><g transform="translate(-46,-206) scale(1,1)"><path fill="none" stroke="#000000" d="M 343 252 L 175 252" stroke-miterlimit="10"/></g><g transform="translate(-46,-206) scale(1,1)"><path fill="#FFFFFF" stroke="none" d="M 185.16267485762415 247.790482243984 L 175 252 L 185.16267485762415 256.209517756016 L 197 252"/></g><g transform="translate(-46,-206) scale(1,1)"><path fill="none" stroke="#000000" d="M 185.16267485762415 247.790482243984 L 175 252 L 185.16267485762415 256.209517756016 L 197 252 L 185.16267485762415 247.790482243984" stroke-miterlimit="10"/></g></g></svg>