<svg version="1.1" xmlns="http://www.w3.org/2000/svg" xmlns:xlink="http://www.w3.org/1999/xlink" width="364" height="300"><defs/><g><text fill="#eeeeee" stroke="none" font-family="Arial" font-size="24px" font-style="normal" font-weight="normal" text-decoration="none" x="0" y="0">UNREGISTERED</text><text fill="#eeeeee" stroke="none" font-family="Arial" font-size="24px" font-style="normal" font-weight="normal" text-decoration="none" x="0" y="30">UNREGISTERED</text><text fill="#eeeeee" stroke="none" font-family="Arial" font-size="24px" font-style="normal" font-weight="normal" text-decoration="none" x="0" y="60">UNREGISTERED</text><text fill="#eeeeee" stroke="none" font-family="Arial" font-size="24px" font-style="normal" font-weight="normal" text-decoration="none" x="0" y="90">UNREGISTERED</text><text fill="#eeeeee" stroke="none" font-family="Arial" font-size="24px" font-style="normal" font-weight="normal" text-decoration="none" x="0" y="120">UNREGISTERED</text><text fill="#eeeeee" stroke="none" font-family="Arial" font-size="24px" font-style="normal" font-weight="normal" text-decoration="none" x="0" y="150">UNREGISTERED</text><text fill="#eeeeee" stroke="none" font-family="Arial" font-size="24px" font-style="normal" font-weight="normal" text-decoration="none" x="0" y="180">UNREGISTERED</text><text fill="#eeeeee" stroke="none" font-family="Arial" font-size="24px" font-style="normal" font-weight="normal" text-decoration="none" x="0" y="210">UNREGISTERED</text><text fill="#eeeeee" stroke="none" font-family="Arial" font-size="24px" font-style="normal" font-weight="normal" text-decoration="none" x="0" y="240">UNREGISTERED</text><text fill="#eeeeee" stroke="none" font-family="Arial" font-size="24px" font-style="normal" font-weight="normal" text-decoration="none" x="0" y="270">UNREGISTERED</text><text fill="#eeeeee" stroke="none" font-family="Arial" font-size="24px" font-style="normal" font-weight="normal" text-decoration="none" x="200" y="0">UNREGISTERED</text><text fill="#eeeeee" stroke="none" font-family="Arial" font-size="24px" font-style="normal" font-weight="normal" text-decoration="none" x="200" y="30">UNREGISTERED</text><text fill="#eeeeee" stroke="none" font-family="Arial" font-size="24px" font-style="normal" font-weight="normal" text-decoration="none" x="200" y="60">UNREGISTERED</text><text fill="#eeeeee" stroke="none" font-family="Arial" font-size="24px" font-style="normal" font-weight="normal" text-decoration="none" x="200" y="90">UNREGISTERED</text><text fill="#eeeeee" stroke="none" font-family="Arial" font-size="24px" font-style="normal" font-weight="normal" text-decoration="none" x="200" y="120">UNREGISTERED</text><text fill="#eeeeee" stroke="none" font-family="Arial" font-size="24px" font-style="normal" font-weight="normal" text-decoration="none" x="200" y="150">UNREGISTERED</text><text fill="#eeeeee" stroke="none" font-family="Arial" font-size="24px" font-style="normal" font-weight="normal" text-decoration="none" x="200" y="180">UNREGISTERED</text><text fill="#eeeeee" stroke="none" font-family="Arial" font-size="24px" font-style="normal" font-weight="normal" text-decoration="none" x="200" y="210">UNREGISTERED</text><text fill="#eeeeee" stroke="none" font-family="Arial" font-size="24px" font-style="normal" font-weight="normal" text-decoration="none" x="200" y="240">UNREGISTERED</text><text fill="#eeeeee" stroke="none" font-family="Arial" font-size="24px" font-style="normal" font-weight="normal" text-decoration="none" x="200" y="270">UNREGISTERED</text><g transform="translate(-78,-214) scale(1,1)"><rect fill="#C0C0C0" stroke="none" x="183" y="231" width="136" height="96" opacity="0.2"/></g><g transform="translate(-78,-214) scale(1,1)"><rect fill="#ffffff" stroke="none" x="176" y="224" width="136" height="96"/></g><g transform="translate(-78,-214) scale(1,1)"><path fill="none" stroke="#000000" d="M 176 224 L 312 224 L 312 320 L 176 320 L 176 224 Z Z" stroke-miterlimit="10"/></g><g transform="translate(-78,-214) scale(1,1)"><path fill="none" stroke="#000000" d="M 176 249 L 312 249" stroke-miterlimit="10"/></g><g transform="translate(-78,-214) scale(1,1)"><path fill="none" stroke="#000000" d="M 176 259 L 312 259" stroke-miterlimit="10"/></g><g transform="translate(-78,-214) scale(1,1)"><g><path fill="none" stroke="none"/><text fill="#000000" stroke="none" font-family="Arial" font-size="13px" font-style="normal" font-weight="bold" text-decoration="none" x="217.62548828125" y="243.5">Template</text></g></g><g transform="translate(-78,-214) scale(1,1)"><g><path fill="none" stroke="none"/><text fill="#000000" stroke="none" font-family="Arial" font-size="13px" font-style="normal" font-weight="normal" text-decoration="none" x="181" y="276.5">+template()</text></g></g><g transform="translate(-78,-214) scale(1,1)"><g><path fill="none" stroke="none"/><text fill="#000000" stroke="none" font-family="Arial" font-size="13px" font-style="normal" font-weight="normal" text-decoration="none" x="181" y="291.5">+operation()</text></g></g><g transform="translate(-78,-214) scale(1,1)"><rect fill="#C0C0C0" stroke="none" x="95" y="423" width="120" height="88" opacity="0.2"/></g><g transform="translate(-78,-214) scale(1,1)"><rect fill="#ffffff" stroke="none" x="88" y="416" width="120" height="88"/></g><g transform="translate(-78,-214) scale(1,1)"><path fill="none" stroke="#000000" d="M 88 416 L 208 416 L 208 504 L 88 504 L 88 416 Z Z" stroke-miterlimit="10"/></g><g transform="translate(-78,-214) scale(1,1)"><path fill="none" stroke="#000000" d="M 88 441 L 208 441" stroke-miterlimit="10"/></g><g transform="translate(-78,-214) scale(1,1)"><path fill="none" stroke="#000000" d="M 88 451 L 208 451" stroke-miterlimit="10"/></g><g transform="translate(-78,-214) scale(1,1)"><g><path fill="none" stroke="none"/><text fill="#000000" stroke="none" font-family="Arial" font-size="13px" font-style="normal" font-weight="bold" text-decoration="none" x="105.73095703125" y="435.5">TemplateImpl1</text></g></g><g transform="translate(-78,-214) scale(1,1)"><g><path fill="none" stroke="none"/><text fill="#000000" stroke="none" font-family="Arial" font-size="13px" font-style="normal" font-weight="normal" text-decoration="none" x="93" y="468.5">+operation()</text></g></g><g transform="translate(-78,-214) scale(1,1)"><path fill="none" stroke="#000000" d="M 171 415 L 219 321" stroke-miterlimit="10"/></g><g transform="translate(-78,-214) scale(1,1)"><path fill="#FFFFFF" stroke="none" d="M 217.25453260310357 342.93064849853675 L 219 321 L 202.2584578981806 335.27307843644843"/></g><g transform="translate(-78,-214) scale(1,1)"><path fill="none" stroke="#000000" d="M 217.25453260310357 342.93064849853675 L 219 321 L 202.2584578981806 335.27307843644843 L 217.25453260310357 342.93064849853675" stroke-miterlimit="10"/></g><g transform="translate(-78,-214) scale(1,1)"><rect fill="#C0C0C0" stroke="none" x="311" y="431" width="128" height="72" opacity="0.2"/></g><g transform="translate(-78,-214) scale(1,1)"><rect fill="#ffffff" stroke="none" x="304" y="424" width="128" height="72"/></g><g transform="translate(-78,-214) scale(1,1)"><path fill="none" stroke="#000000" d="M 304 424 L 432 424 L 432 496 L 304 496 L 304 424 Z Z" stroke-miterlimit="10"/></g><g transform="translate(-78,-214) scale(1,1)"><path fill="none" stroke="#000000" d="M 304 449 L 432 449" stroke-miterlimit="10"/></g><g transform="translate(-78,-214) scale(1,1)"><path fill="none" stroke="#000000" d="M 304 459 L 432 459" stroke-miterlimit="10"/></g><g transform="translate(-78,-214) scale(1,1)"><g><path fill="none" stroke="none"/><text fill="#000000" stroke="none" font-family="Arial" font-size="13px" font-style="normal" font-weight="bold" text-decoration="none" x="325.73095703125" y="443.5">TemplateImpl2</text></g></g><g transform="translate(-78,-214) scale(1,1)"><g><path fill="none" stroke="none"/><text fill="#000000" stroke="none" font-family="Arial" font-size="13px" font-style="normal" font-weight="normal" text-decoration="none" x="309" y="476.5">+operation()</text></g></g><g transform="translate(-78,-214) scale(1,1)"><path fill="none" stroke="#000000" d="M 344 423 L 276 321" stroke-miterlimit="10"/></g><g transform="translate(-78,-214) scale(1,1)"><path fill="#FFFFFF" stroke="none" d="M 294.2795364512216 333.24167256254066 L 276 321 L 280.2694144995677 342.58175386364326"/></g><g transform="translate(-78,-214) scale(1,1)"><path fill="none" stroke="#000000" d="M 294.2795364512216 333.24167256254066 L 276 321 L 280.2694144995677 342.58175386364326 L 294.2795364512216 333.24167256254066" stroke-miterlimit="10"/></g></g></svg>